<svg width="119" height="50" viewBox="0 0 119 50" fill="none" xmlns="http://www.w3.org/2000/svg">
<path fill-rule="evenodd" clip-rule="evenodd" d="M0 0H119V50H0V0ZM8.28748 8.33333H110.721V41.6667H8.28748V8.33333ZM13.7051 20V25V31.6667V36.6667H20.3905V31.6667H20.8501L28.7472 40.6667L33.7786 36.2767L29.7334 31.6667H33.7612V25V20V13.3333H27.0758H20.3905H13.7051V20ZM20.3905 25H27.0758V20H20.3905V25ZM42.118 36.6667H35.4326V30V20V13.3333H42.118H48.8034H55.4888V20V30V36.6667H48.8034H42.118ZM48.8034 20H42.118V30H48.8034V20ZM56.8258 20V13.3333H63.5112H70.1966H76.882V20V30V36.6667H70.1966H63.5112H56.8258V30V20ZM63.5112 20H70.1966V30H63.5112V20ZM78.5534 20V36.6667H85.2388V20H88.5815V36.6667H95.2669V20H98.6096V36.6667H105.295V13.3333H98.6096H85.2388H78.5534V20Z" fill="#3792DE"/>
</svg>
